<svg width="88" height="40" viewBox="0 0 88 40" fill="none" xmlns="http://www.w3.org/2000/svg">
<path d="M1 19.4235C1 14.5744 4.60371 10.7852 9.50582 10.7852C12.2881 10.7852 14.2489 11.686 15.9183 13.2229L13.348 16.4821C12.2086 15.4752 11.0957 14.9188 9.53231 14.9188C7.25349 14.9188 5.50464 16.9326 5.50464 19.5294C5.50464 22.2057 7.28 24.14 9.7973 24.14C10.8572 24.14 11.6786 23.9015 12.3146 23.4511V21.4372H9.21435V18.0721H16.4748V25.5445C14.8054 27.0019 12.4736 28.1147 9.61182 28.1147C4.68321 28.0617 1 24.5111 1 19.4235Z" fill="black" stroke="black" stroke-width="0.1" stroke-miterlimit="10"/>
<path d="M18.2236 11.1033H30.9426V15.0249H22.5693V17.5422H30.1477V21.1724H22.5693V23.8222H31.0486V27.7439H18.2236V11.1033Z" fill="black" stroke="black" stroke-width="0.1" stroke-miterlimit="10"/>
<path d="M38.072 10.9978H42.2852L49.0157 27.7445H44.3255L43.1861 24.7767H37.0916L35.9522 27.7445H31.3416L38.072 10.9978ZM41.8877 21.1731L40.1389 16.4565L38.3635 21.1731H41.8877Z" fill="black" stroke="black" stroke-width="0.1" stroke-miterlimit="10"/>
<path d="M49.8638 11.1033H57.3362C59.7475 11.1033 61.4168 11.7657 62.4768 12.8786C63.4042 13.859 63.8812 15.1309 63.8812 16.8267C63.8812 19.3705 62.5828 21.0399 60.6219 21.9408L64.3846 27.7439H59.35L56.1703 22.7094H54.2624V27.7439H49.8903V11.1033H49.8638ZM57.1242 19.0792C58.6081 19.0792 59.4825 18.3107 59.4825 17.0653C59.4825 15.7669 58.5816 15.1045 57.1242 15.1045H54.2624V19.1057H57.1242V19.0792Z" fill="black" stroke="black" stroke-width="0.1" stroke-miterlimit="10"/>
<path d="M85.2094 9.61875C84.07 11.1026 82.7451 12.5599 82.0296 14.3088C80.4928 17.197 78.3464 19.7144 76.889 22.6026C76.889 25.8884 73.7888 27.8228 72.7554 30.6846C74.5307 32.7515 77.7105 32.6189 79.9893 31.9565C80.9962 32.3539 82.0297 32.1684 83.0896 32.0889C84.0965 31.9564 85.1299 31.8769 86.0043 32.6983C86.8258 32.6188 87.4087 33.3079 87.6472 33.9703C87.9651 34.8448 87.5147 35.5072 87.0643 36.1167L86.0573 36.5936C84.017 36.5936 81.5527 36.7261 79.6448 36.5936C78.3729 36.9381 76.9155 36.9381 75.6436 36.9381L70.3706 38.7399C68.7807 39.7468 67.6413 38.4749 66.3164 37.9979C65.8659 37.8124 65.4155 37.733 64.912 37.945C64.4615 37.5476 63.6401 37.1501 63.9581 36.4611C65.283 32.5924 68.2242 29.1742 70.5031 25.8885C71.404 24.5371 71.192 22.6822 72.0929 21.1983C73.5503 18.734 75.4051 16.2432 76.2266 13.3814C77.5515 11.765 78.7174 9.9102 78.1874 7.76387C77.4985 7.49889 76.783 7.97583 76.1471 8.24081C75.9616 8.3203 75.6966 8.37327 75.3787 8.37327C73.6033 8.50576 71.828 8.02885 70.3706 7.10142C69.3636 6.49197 69.0457 8.1084 67.9062 7.49895C66.6343 6.75701 65.0975 6.6244 64.223 5.22001C64.7265 3.60364 65.6804 2.01389 67.4028 1.53692C67.8532 0.874476 68.5422 0.264979 69.3106 0C70.5825 0.13249 71.722 0.476898 72.8084 0.927362C73.8948 1.32483 74.9812 1.80177 76.1206 2.06675C78.3464 2.14625 80.4928 1.32494 82.6656 1.53692C83.9375 2.67633 85.7128 1.80188 87.1172 2.67631C87.7532 3.07378 87.8062 3.86867 87.8857 4.61061C87.5677 6.54496 86.4018 8.08187 85.2094 9.61875Z" fill="#ED1C24"/>
</svg>
