<svg width="21" height="21" viewBox="0 0 21 21" fill="none" xmlns="http://www.w3.org/2000/svg">
<path d="M13.7231 0.732422H7.27693C1.39449 0.732422 0 2.02062 0 7.45471V13.4095C0 18.8436 1.39449 20.1318 7.27693 20.1318H13.7231C19.6055 20.1318 21 18.8436 21 13.4095V7.45471C21 2.02062 19.5917 0.732422 13.7231 0.732422V0.732422ZM16.953 14.571H15.4286C14.8511 14.571 14.6733 14.1479 13.6345 13.1755C12.7322 12.3675 12.3325 12.2602 12.1101 12.2602C11.7957 12.2602 11.7065 12.342 11.7065 12.7403V14.0127C11.7065 14.354 11.5903 14.5589 10.6125 14.5589C8.99559 14.5589 7.20146 13.6557 5.94347 11.9728C4.04631 9.50675 3.52723 7.65961 3.52723 7.2777C3.52723 7.07219 3.61582 6.88002 4.04303 6.88002H5.57073C5.95725 6.88002 6.10425 7.04431 6.25452 7.42622C7.00984 9.44067 8.26784 11.2054 8.78691 11.2054C8.97853 11.2054 9.06712 11.1235 9.06712 10.6719V8.59136C9.00872 7.63173 8.46208 7.54928 8.46208 7.20859C8.46208 7.04431 8.60908 6.88002 8.84466 6.88002H11.2471C11.572 6.88002 11.6914 7.04431 11.6914 7.39773V10.2045C11.6914 10.5076 11.8384 10.6149 11.927 10.6149C12.1186 10.6149 12.2826 10.5076 12.6377 10.179C13.7349 9.04239 14.521 7.28983 14.521 7.28983C14.6234 7.08432 14.8013 6.89215 15.1878 6.89215H16.7155C17.1735 6.89215 17.2759 7.10978 17.1735 7.41289C16.9819 8.2337 15.1123 10.6713 15.1123 10.6713C14.9515 10.9174 14.8898 11.0247 15.1123 11.2993C15.2764 11.5048 15.8099 11.931 16.1649 12.3129C16.8178 12.9979 17.3199 13.5726 17.4537 13.9703C17.604 14.3649 17.3822 14.5704 16.9511 14.5704L16.953 14.571Z" fill="white"/>
</svg>
