<svg width="57" height="60" viewBox="0 0 57 60" fill="none" xmlns="http://www.w3.org/2000/svg">
<g filter="url(#filter0_d)">
<path d="M51.373 47.4062C51.054 47.5339 50.7669 47.7253 50.5117 47.9805C50.2565 48.2357 49.9694 48.3633 49.6504 48.3633C49.14 48.3633 48.6296 48.2676 48.1191 48.0762C47.6087 47.8848 47.1621 48.0124 46.7793 48.459C46.0775 48.0762 45.1204 48.0124 43.9082 48.2676C42.7598 48.459 41.7389 48.5547 40.8457 48.5547C40.4629 48.5547 40.2077 48.6504 40.0801 48.8418C39.9525 49.0332 39.7292 49.1927 39.4102 49.3203C38.7083 49.2565 37.9746 49.2565 37.209 49.3203C36.4434 49.3203 35.6777 49.3203 34.9121 49.3203C34.4655 49.3203 34.0508 49.2884 33.668 49.2246C33.2852 49.097 32.9023 49.0332 32.5195 49.0332C32.1367 49.0332 31.7539 49.1289 31.3711 49.3203C31.0521 49.4479 30.7012 49.5117 30.3184 49.5117C30.0632 49.5117 29.8079 49.4798 29.5527 49.416C29.2975 49.3522 29.0742 49.4479 28.8828 49.7031C28.1172 49.3203 27.2559 49.1289 26.2988 49.1289C25.3418 49.1289 24.3848 49.1927 23.4277 49.3203C22.4707 49.4479 21.4818 49.5755 20.4609 49.7031C19.5039 49.8307 18.6107 49.8626 17.7812 49.7988C17.6536 49.8626 17.3984 49.9902 17.0156 50.1816C16.6966 50.3092 16.3138 50.4688 15.8672 50.6602C15.4844 50.8516 15.1016 51.043 14.7188 51.2344C14.3997 51.362 14.2083 51.4258 14.1445 51.4258C13.8893 51.4258 13.6979 51.3939 13.5703 51.3301C13.5065 51.2663 13.4427 51.2344 13.3789 51.2344C13.3151 51.1706 13.1875 51.1706 12.9961 51.2344C12.8685 51.2982 12.6452 51.4577 12.3262 51.7129C12.1986 51.7129 11.9434 51.7129 11.5605 51.7129C11.2415 51.6491 10.8906 51.5853 10.5078 51.5215C10.125 51.4577 9.74219 51.3939 9.35938 51.3301C9.04036 51.2025 8.84896 51.1068 8.78516 51.043C8.59375 50.5326 8.33854 50.3092 8.01953 50.373C7.70052 50.4368 7.38151 50.4049 7.0625 50.2773C6.9987 50.2773 6.83919 50.1816 6.58398 49.9902C6.39258 49.735 6.13737 49.4798 5.81836 49.2246C5.56315 48.9056 5.30794 48.6185 5.05273 48.3633C4.79753 48.1081 4.63802 47.9167 4.57422 47.7891C4.70182 47.5977 4.79753 47.4062 4.86133 47.2148C4.98893 46.9596 5.11654 46.7363 5.24414 46.5449C5.37174 46.0983 5.33984 45.8431 5.14844 45.7793C4.95703 45.7155 4.82943 45.5879 4.76562 45.3965C5.40365 45.0137 5.88216 44.5671 6.20117 44.0566C6.58398 43.5462 6.74349 42.9082 6.67969 42.1426C7.1263 42.0788 7.50911 41.9193 7.82812 41.6641C8.14714 41.4089 8.43424 41.1217 8.68945 40.8027C9.45508 40.6751 10.0612 40.4199 10.5078 40.0371C11.0182 39.5905 11.4648 39.0482 11.8477 38.4102C12.0391 38.4102 12.1986 38.3464 12.3262 38.2188C12.5176 38.0911 12.7409 37.9954 12.9961 37.9316C13.3151 37.6126 13.5384 37.2936 13.666 36.9746C13.7936 36.5918 14.1126 36.3047 14.623 36.1133C14.4954 35.7943 14.4316 35.571 14.4316 35.4434C14.4316 35.3158 14.4635 35.2201 14.5273 35.1562C14.6549 35.0286 14.7507 34.901 14.8145 34.7734C14.9421 34.6458 15.0059 34.4225 15.0059 34.1035C15.7077 33.8483 16.3138 33.4974 16.8242 33.0508C17.3346 32.5404 17.9408 32.1576 18.6426 31.9023C18.515 31.3919 18.5788 31.0729 18.834 30.9453C19.0892 30.8177 19.153 30.4987 19.0254 29.9883C19.3444 29.7331 19.5677 29.5098 19.6953 29.3184C19.8867 29.127 20.1419 28.9674 20.4609 28.8398C20.3971 28.3932 20.429 28.1061 20.5566 27.9785C20.6842 27.8509 20.9076 27.6276 21.2266 27.3086C21.5456 26.9896 21.7051 26.7344 21.7051 26.543C21.7689 26.3516 21.8646 26.0645 21.9922 25.6816C22.1836 25.2988 22.4707 25.0755 22.8535 25.0117C22.8535 24.7565 22.8854 24.5332 22.9492 24.3418C23.0768 24.0866 23.1406 23.8314 23.1406 23.5762C23.5872 23.321 23.9382 23.002 24.1934 22.6191C24.4486 22.1725 24.6719 21.7578 24.8633 21.375C25.1185 20.9284 25.3737 20.5137 25.6289 20.1309C25.8841 19.6842 26.2669 19.3014 26.7773 18.9824C26.3945 18.5996 26.2988 18.3444 26.4902 18.2168C26.6816 18.0254 26.8092 17.7383 26.873 17.3555C27.1921 17.3555 27.3516 17.2917 27.3516 17.1641C27.4154 17.0365 27.6387 17.0046 28.0215 17.0684C28.0215 16.6217 28.1172 16.3027 28.3086 16.1113C28.5 15.9199 28.7233 15.7604 28.9785 15.6328C29.2337 15.5052 29.457 15.3457 29.6484 15.1543C29.8398 14.9629 29.9355 14.6758 29.9355 14.293C31.0202 14.293 31.6582 13.974 31.8496 13.3359C32.1048 12.6979 32.4876 12.1556 32.998 11.709C33.2533 11.4538 33.4766 11.2624 33.668 11.1348C33.8594 10.9434 33.9551 10.6562 33.9551 10.2734C33.5723 9.82682 33.0618 9.60352 32.4238 9.60352C31.7858 9.53971 31.1159 9.50781 30.4141 9.50781C29.776 9.50781 29.1699 9.47591 28.5957 9.41211C28.0853 9.28451 27.7344 8.96549 27.543 8.45508C27.0326 8.58268 26.6816 8.74219 26.4902 8.93359C26.2988 9.0612 26.0117 9.2207 25.6289 9.41211C24.3529 8.96549 23.2044 8.86979 22.1836 9.125C21.2266 9.31641 20.11 9.41211 18.834 9.41211C18.515 9.41211 18.2279 9.38021 17.9727 9.31641C17.7812 9.2526 17.526 9.2207 17.207 9.2207C16.6966 9.2207 16.2181 9.31641 15.7715 9.50781C15.3887 9.69922 14.9421 9.79492 14.4316 9.79492C13.7298 9.79492 13.0599 9.73112 12.4219 9.60352C11.7839 9.47591 11.1139 9.41211 10.4121 9.41211C9.90169 9.41211 9.35938 9.47591 8.78516 9.60352C8.21094 9.66732 7.70052 9.60352 7.25391 9.41211C6.42448 8.64648 5.97786 8.19987 5.91406 8.07227C5.91406 7.88086 5.62695 7.59375 5.05273 7.21094C5.11654 6.76432 5.02083 6.38151 4.76562 6.0625C4.57422 5.67969 4.47852 5.26497 4.47852 4.81836C4.47852 4.43555 4.60612 4.05273 4.86133 3.66992C5.18034 3.22331 5.53125 2.80859 5.91406 2.42578C6.29688 2.04297 6.71159 1.75586 7.1582 1.56445C7.60482 1.30924 8.01953 1.18164 8.40234 1.18164C8.91276 1.18164 9.48698 1.24544 10.125 1.37305C10.8268 1.50065 11.3691 1.69206 11.752 1.94727C13.4108 1.94727 14.8464 1.88346 16.0586 1.75586C17.3346 1.62826 18.4831 1.81966 19.5039 2.33008C21.3542 2.01107 23.2044 1.78776 25.0547 1.66016C26.9049 1.46875 28.7871 1.37305 30.7012 1.37305C31.403 1.37305 32.1048 1.40495 32.8066 1.46875C33.5085 1.53255 34.2103 1.56445 34.9121 1.56445C35.1673 1.56445 35.3906 1.56445 35.582 1.56445C35.8372 1.50065 36.1243 1.46875 36.4434 1.46875C36.6986 1.46875 36.9219 1.53255 37.1133 1.66016C37.3685 1.72396 37.6237 1.75586 37.8789 1.75586C38.5169 1.75586 39.2188 1.69206 39.9844 1.56445C40.8138 1.43685 41.5156 1.46875 42.0898 1.66016C42.6641 1.40495 43.1426 1.21354 43.5254 1.08594C43.972 0.894531 44.5462 0.894531 45.248 1.08594C45.7585 1.85156 46.5241 2.48958 47.5449 3C47.6725 3.57422 47.9915 4.08464 48.502 4.53125C48.5658 4.91406 48.5339 5.36068 48.4062 5.87109C48.3424 6.38151 48.4382 6.79622 48.6934 7.11523C48.4382 7.49805 48.151 7.75326 47.832 7.88086C47.5768 8.00846 47.4492 8.35938 47.4492 8.93359C47.0664 8.93359 46.7793 9.0293 46.5879 9.2207C46.3965 9.34831 46.237 9.50781 46.1094 9.69922C45.9818 9.89062 45.8223 10.082 45.6309 10.2734C45.5033 10.401 45.248 10.4329 44.8652 10.3691C44.61 10.4967 44.4505 10.6562 44.3867 10.8477C44.3229 10.9753 44.2272 11.1348 44.0996 11.3262C44.0358 11.4538 43.9082 11.5814 43.7168 11.709C43.5892 11.7728 43.334 11.7728 42.9512 11.709C43.0788 12.347 42.8874 13.0807 42.377 13.9102C41.8665 14.7396 41.2923 15.25 40.6543 15.4414C40.3991 16.3346 39.9525 17.0365 39.3145 17.5469C38.6764 18.0573 38.1979 18.7272 37.8789 19.5566C37.6875 19.5566 37.4961 19.6204 37.3047 19.748C37.1771 19.8118 37.0495 19.8438 36.9219 19.8438C36.7305 20.1628 36.5391 20.4499 36.3477 20.7051C36.1562 20.9603 35.9967 21.2474 35.8691 21.5664C35.4225 21.5664 35.0716 21.694 34.8164 21.9492C34.625 22.1406 34.4336 22.3639 34.2422 22.6191C34.0508 22.8105 33.8275 23.0339 33.5723 23.2891C33.3171 23.4805 32.9661 23.6081 32.5195 23.6719V25.2031C32.0729 25.5221 31.722 26.0007 31.4668 26.6387C31.2754 27.2129 30.9883 27.7233 30.6055 28.1699C30.4141 28.4251 30.2227 28.7122 30.0312 29.0312C29.9036 29.2865 29.8717 29.5736 29.9355 29.8926C29.4889 30.084 29.1699 30.403 28.9785 30.8496C28.8509 31.2962 28.7233 31.7428 28.5957 32.1895C27.8301 32.4447 27.224 32.8594 26.7773 33.4336C26.3945 33.944 25.9798 34.5182 25.5332 35.1562C25.1504 35.7305 24.7676 36.3047 24.3848 36.8789C24.0658 37.3893 23.8743 37.7721 23.8105 38.0273C23.6191 38.2826 23.3958 38.474 23.1406 38.6016C22.9492 38.6654 22.7578 38.7611 22.5664 38.8887C22.4388 38.9525 22.3112 39.0801 22.1836 39.2715C22.1198 39.4629 22.0879 39.7819 22.0879 40.2285C22.0879 40.4199 22.2155 40.6113 22.4707 40.8027C22.7259 40.9941 23.013 41.1536 23.332 41.2812C23.651 41.4089 23.9701 41.5046 24.2891 41.5684C24.6081 41.6322 24.8633 41.6641 25.0547 41.6641C25.5651 41.6641 26.0117 41.6322 26.3945 41.5684C26.8411 41.5046 27.3197 41.4727 27.8301 41.4727C27.9577 41.4727 28.0853 41.5365 28.2129 41.6641C28.4043 41.7279 28.5957 41.7598 28.7871 41.7598C29.1061 41.7598 29.3613 41.7279 29.5527 41.6641C29.8079 41.5365 30.0951 41.4727 30.4141 41.4727C31.2435 41.4727 32.2643 41.5046 33.4766 41.5684C34.7526 41.5684 35.7415 41.3132 36.4434 40.8027C36.9538 40.7389 37.5918 40.7389 38.3574 40.8027C39.1868 40.8027 39.793 40.6113 40.1758 40.2285C40.4948 40.5475 41.0052 40.6751 41.707 40.6113C42.4089 40.5475 42.9831 40.5156 43.4297 40.5156C43.7487 40.5794 43.9401 40.5475 44.0039 40.4199C44.1315 40.2923 44.291 40.1328 44.4824 39.9414C45.6309 39.6862 46.7474 39.4629 47.832 39.2715C48.9805 39.0163 50.097 38.8249 51.1816 38.6973C50.9264 39.7181 51.3092 40.5475 52.3301 41.1855C52.5215 42.3978 52.4577 43.4824 52.1387 44.4395C51.8835 45.3327 51.6283 46.3216 51.373 47.4062Z" fill="#C51F27"/>
</g>
<defs>
<filter id="filter0_d" x="0.478516" y="0.942383" width="55.9592" height="58.7705" filterUnits="userSpaceOnUse" color-interpolation-filters="sRGB">
<feFlood flood-opacity="0" result="BackgroundImageFix"/>
<feColorMatrix in="SourceAlpha" type="matrix" values="0 0 0 0 0 0 0 0 0 0 0 0 0 0 0 0 0 0 127 0" result="hardAlpha"/>
<feOffset dy="4"/>
<feGaussianBlur stdDeviation="2"/>
<feComposite in2="hardAlpha" operator="out"/>
<feColorMatrix type="matrix" values="0 0 0 0 0 0 0 0 0 0 0 0 0 0 0 0 0 0 0.25 0"/>
<feBlend mode="normal" in2="BackgroundImageFix" result="effect1_dropShadow"/>
<feBlend mode="normal" in="SourceGraphic" in2="effect1_dropShadow" result="shape"/>
</filter>
</defs>
</svg>
